<mxfile host="Electron" agent="Mozilla/5.0 (Windows NT 10.0; Win64; x64) AppleWebKit/537.36 (KHTML, like Gecko) draw.io/28.1.2 Chrome/138.0.7204.243 Electron/37.4.0 Safari/537.36" version="28.1.2">
  <diagram name="Page-1" id="Ezppizk97ymZZbFXa4OW">
    <mxGraphModel dx="3126" dy="1949" grid="1" gridSize="9" guides="1" tooltips="1" connect="1" arrows="1" fold="1" page="1" pageScale="1" pageWidth="1700" pageHeight="1100" math="0" shadow="0">
      <root>
        <mxCell id="0" />
        <mxCell id="1" parent="0" />
        <mxCell id="vJuBSnmbE9nTvWEmyY4Q-3" value="" style="edgeStyle=orthogonalEdgeStyle;rounded=0;orthogonalLoop=1;jettySize=auto;html=1;" parent="1" source="vJuBSnmbE9nTvWEmyY4Q-1" target="vJuBSnmbE9nTvWEmyY4Q-2" edge="1">
          <mxGeometry relative="1" as="geometry" />
        </mxCell>
        <mxCell id="vJuBSnmbE9nTvWEmyY4Q-7" value="" style="edgeStyle=orthogonalEdgeStyle;rounded=0;orthogonalLoop=1;jettySize=auto;html=1;" parent="1" source="vJuBSnmbE9nTvWEmyY4Q-1" target="vJuBSnmbE9nTvWEmyY4Q-6" edge="1">
          <mxGeometry relative="1" as="geometry" />
        </mxCell>
        <mxCell id="vJuBSnmbE9nTvWEmyY4Q-9" value="" style="edgeStyle=orthogonalEdgeStyle;rounded=0;orthogonalLoop=1;jettySize=auto;html=1;" parent="1" source="vJuBSnmbE9nTvWEmyY4Q-1" target="vJuBSnmbE9nTvWEmyY4Q-8" edge="1">
          <mxGeometry relative="1" as="geometry" />
        </mxCell>
        <mxCell id="vJuBSnmbE9nTvWEmyY4Q-1" value="KOMPRESÖR" style="rhombus;whiteSpace=wrap;html=1;fillColor=#dae8fc;strokeColor=#6c8ebf;" parent="1" vertex="1">
          <mxGeometry x="320" y="-26" width="120" height="90" as="geometry" />
        </mxCell>
        <mxCell id="vJuBSnmbE9nTvWEmyY4Q-70" value="" style="edgeStyle=orthogonalEdgeStyle;rounded=0;orthogonalLoop=1;jettySize=auto;html=1;" parent="1" source="vJuBSnmbE9nTvWEmyY4Q-2" target="vJuBSnmbE9nTvWEmyY4Q-69" edge="1">
          <mxGeometry relative="1" as="geometry" />
        </mxCell>
        <mxCell id="vJuBSnmbE9nTvWEmyY4Q-72" value="" style="edgeStyle=orthogonalEdgeStyle;rounded=0;orthogonalLoop=1;jettySize=auto;html=1;" parent="1" source="vJuBSnmbE9nTvWEmyY4Q-2" target="vJuBSnmbE9nTvWEmyY4Q-71" edge="1">
          <mxGeometry relative="1" as="geometry" />
        </mxCell>
        <mxCell id="vJuBSnmbE9nTvWEmyY4Q-2" value="hava giriş" style="rhombus;whiteSpace=wrap;html=1;" parent="1" vertex="1">
          <mxGeometry x="326" y="-124" width="108" height="98" as="geometry" />
        </mxCell>
        <mxCell id="vJuBSnmbE9nTvWEmyY4Q-6" value="faz" style="rhombus;whiteSpace=wrap;html=1;" parent="1" vertex="1">
          <mxGeometry x="270" y="-3.5" width="40" height="45" as="geometry" />
        </mxCell>
        <mxCell id="vJuBSnmbE9nTvWEmyY4Q-60" value="" style="edgeStyle=orthogonalEdgeStyle;rounded=0;orthogonalLoop=1;jettySize=auto;html=1;" parent="1" source="vJuBSnmbE9nTvWEmyY4Q-8" target="vJuBSnmbE9nTvWEmyY4Q-59" edge="1">
          <mxGeometry relative="1" as="geometry" />
        </mxCell>
        <mxCell id="vJuBSnmbE9nTvWEmyY4Q-61" style="edgeStyle=orthogonalEdgeStyle;rounded=0;orthogonalLoop=1;jettySize=auto;html=1;exitX=1;exitY=0.5;exitDx=0;exitDy=0;entryX=0;entryY=0.5;entryDx=0;entryDy=0;" parent="1" source="vJuBSnmbE9nTvWEmyY4Q-8" target="vJuBSnmbE9nTvWEmyY4Q-30" edge="1">
          <mxGeometry relative="1" as="geometry" />
        </mxCell>
        <mxCell id="vJuBSnmbE9nTvWEmyY4Q-62" value="hava dolum" style="edgeLabel;html=1;align=center;verticalAlign=middle;resizable=0;points=[];" parent="vJuBSnmbE9nTvWEmyY4Q-61" vertex="1" connectable="0">
          <mxGeometry x="-0.0664" y="-1" relative="1" as="geometry">
            <mxPoint as="offset" />
          </mxGeometry>
        </mxCell>
        <mxCell id="vJuBSnmbE9nTvWEmyY4Q-8" value="hava&lt;br&gt;çıkış" style="rhombus;whiteSpace=wrap;html=1;" parent="1" vertex="1">
          <mxGeometry x="334.5" y="64" width="91" height="76.25" as="geometry" />
        </mxCell>
        <mxCell id="vJuBSnmbE9nTvWEmyY4Q-13" value="" style="edgeStyle=orthogonalEdgeStyle;rounded=0;orthogonalLoop=1;jettySize=auto;html=1;" parent="1" source="vJuBSnmbE9nTvWEmyY4Q-11" target="vJuBSnmbE9nTvWEmyY4Q-12" edge="1">
          <mxGeometry relative="1" as="geometry" />
        </mxCell>
        <mxCell id="vJuBSnmbE9nTvWEmyY4Q-11" value="çekmece" style="rounded=0;whiteSpace=wrap;html=1;" parent="1" vertex="1">
          <mxGeometry x="824" y="90" width="107" height="60" as="geometry" />
        </mxCell>
        <mxCell id="vJuBSnmbE9nTvWEmyY4Q-12" value="çekmece&lt;br&gt;hareket" style="rhombus;whiteSpace=wrap;html=1;rounded=0;" parent="1" vertex="1">
          <mxGeometry x="837.5" y="-60" width="80" height="80" as="geometry" />
        </mxCell>
        <mxCell id="vJuBSnmbE9nTvWEmyY4Q-21" value="" style="edgeStyle=orthogonalEdgeStyle;rounded=0;orthogonalLoop=1;jettySize=auto;html=1;" parent="1" source="vJuBSnmbE9nTvWEmyY4Q-18" target="vJuBSnmbE9nTvWEmyY4Q-20" edge="1">
          <mxGeometry relative="1" as="geometry" />
        </mxCell>
        <mxCell id="vJuBSnmbE9nTvWEmyY4Q-18" value="baskı" style="rounded=0;whiteSpace=wrap;html=1;" parent="1" vertex="1">
          <mxGeometry x="819" y="336.5" width="117" height="19" as="geometry" />
        </mxCell>
        <mxCell id="vJuBSnmbE9nTvWEmyY4Q-20" value="baskı&lt;br&gt;hareket" style="rhombus;whiteSpace=wrap;html=1;rounded=0;" parent="1" vertex="1">
          <mxGeometry x="837.5" y="189" width="80" height="80" as="geometry" />
        </mxCell>
        <mxCell id="vJuBSnmbE9nTvWEmyY4Q-27" value="" style="edgeStyle=orthogonalEdgeStyle;rounded=0;orthogonalLoop=1;jettySize=auto;html=1;" parent="1" source="vJuBSnmbE9nTvWEmyY4Q-28" target="vJuBSnmbE9nTvWEmyY4Q-29" edge="1">
          <mxGeometry relative="1" as="geometry" />
        </mxCell>
        <mxCell id="vJuBSnmbE9nTvWEmyY4Q-28" value="oda" style="rounded=0;whiteSpace=wrap;html=1;" parent="1" vertex="1">
          <mxGeometry x="829.5" y="-237" width="107" height="60" as="geometry" />
        </mxCell>
        <mxCell id="vJuBSnmbE9nTvWEmyY4Q-29" value="oda&lt;br&gt;hareket" style="rhombus;whiteSpace=wrap;html=1;rounded=0;" parent="1" vertex="1">
          <mxGeometry x="843" y="-387" width="80" height="80" as="geometry" />
        </mxCell>
        <mxCell id="vJuBSnmbE9nTvWEmyY4Q-30" value="hava tüpü" style="rounded=1;whiteSpace=wrap;html=1;rotation=-90;" parent="1" vertex="1">
          <mxGeometry x="550" y="-26" width="172" height="36" as="geometry" />
        </mxCell>
        <mxCell id="vJuBSnmbE9nTvWEmyY4Q-36" value="" style="edgeStyle=orthogonalEdgeStyle;rounded=0;orthogonalLoop=1;jettySize=auto;html=1;" parent="1" source="vJuBSnmbE9nTvWEmyY4Q-31" target="vJuBSnmbE9nTvWEmyY4Q-6" edge="1">
          <mxGeometry relative="1" as="geometry" />
        </mxCell>
        <mxCell id="vJuBSnmbE9nTvWEmyY4Q-31" value="basınç&lt;br&gt;&lt;div&gt;şarteli&lt;/div&gt;&lt;div&gt;&lt;br&gt;&lt;/div&gt;" style="triangle;whiteSpace=wrap;html=1;" parent="1" vertex="1">
          <mxGeometry x="135" y="-47.75" width="90" height="133.5" as="geometry" />
        </mxCell>
        <mxCell id="vJuBSnmbE9nTvWEmyY4Q-35" value="" style="edgeStyle=orthogonalEdgeStyle;rounded=0;orthogonalLoop=1;jettySize=auto;html=1;" parent="1" source="vJuBSnmbE9nTvWEmyY4Q-33" target="vJuBSnmbE9nTvWEmyY4Q-31" edge="1">
          <mxGeometry relative="1" as="geometry" />
        </mxCell>
        <mxCell id="vJuBSnmbE9nTvWEmyY4Q-33" value="" style="pointerEvents=1;verticalLabelPosition=bottom;shadow=0;dashed=0;align=center;html=1;verticalAlign=top;shape=mxgraph.electrical.signal_sources.dc_source_1;" parent="1" vertex="1">
          <mxGeometry x="-18" y="-18.5" width="70" height="75" as="geometry" />
        </mxCell>
        <mxCell id="vJuBSnmbE9nTvWEmyY4Q-53" style="edgeStyle=orthogonalEdgeStyle;rounded=0;orthogonalLoop=1;jettySize=auto;html=1;exitX=0;exitY=0.5;exitDx=0;exitDy=0;entryX=0.015;entryY=0.994;entryDx=0;entryDy=0;entryPerimeter=0;" parent="1" source="vJuBSnmbE9nTvWEmyY4Q-8" target="vJuBSnmbE9nTvWEmyY4Q-31" edge="1">
          <mxGeometry relative="1" as="geometry">
            <Array as="points">
              <mxPoint x="136" y="102" />
            </Array>
          </mxGeometry>
        </mxCell>
        <mxCell id="vJuBSnmbE9nTvWEmyY4Q-54" value="basınç kontrol" style="edgeLabel;html=1;align=center;verticalAlign=middle;resizable=0;points=[];" parent="vJuBSnmbE9nTvWEmyY4Q-53" vertex="1" connectable="0">
          <mxGeometry x="0.1337" relative="1" as="geometry">
            <mxPoint as="offset" />
          </mxGeometry>
        </mxCell>
        <mxCell id="vJuBSnmbE9nTvWEmyY4Q-59" value="hava boşaltma" style="shape=step;perimeter=stepPerimeter;whiteSpace=wrap;html=1;fixedSize=1;rotation=90;" parent="1" vertex="1">
          <mxGeometry x="315" y="312.75" width="130" height="42.75" as="geometry" />
        </mxCell>
        <mxCell id="vJuBSnmbE9nTvWEmyY4Q-63" style="edgeStyle=orthogonalEdgeStyle;rounded=0;orthogonalLoop=1;jettySize=auto;html=1;exitX=0;exitY=0.5;exitDx=0;exitDy=0;entryX=1;entryY=0.5;entryDx=0;entryDy=0;" parent="1" source="vJuBSnmbE9nTvWEmyY4Q-8" target="vJuBSnmbE9nTvWEmyY4Q-8" edge="1">
          <mxGeometry relative="1" as="geometry" />
        </mxCell>
        <mxCell id="vJuBSnmbE9nTvWEmyY4Q-69" value="dış hava&amp;nbsp;&lt;br&gt;giriş" style="shape=singleArrow;whiteSpace=wrap;html=1;arrowWidth=0.4;arrowSize=0.4;rotation=90;" parent="1" vertex="1">
          <mxGeometry x="318.5" y="-336.75" width="123" height="123.5" as="geometry" />
        </mxCell>
        <mxCell id="vJuBSnmbE9nTvWEmyY4Q-71" value="hava emme" style="shape=singleArrow;whiteSpace=wrap;html=1;arrowWidth=0.4;arrowSize=0.4;rotation=-180;" parent="1" vertex="1">
          <mxGeometry x="486" y="-207" width="80" height="60" as="geometry" />
        </mxCell>
      </root>
    </mxGraphModel>
  </diagram>
</mxfile>
